<svg width="16" height="16" viewBox="0 0 16 16" fill="none" xmlns="http://www.w3.org/2000/svg">
<path d="M7.48828 10.1367C6.73828 10.0078 6.26953 9.74414 5.90039 9.375C4.47656 7.95703 4.48828 5.96484 5.89453 4.55859L7.89258 2.55469C9.29883 1.14844 11.291 1.13672 12.7148 2.56055C14.1328 3.98438 14.1211 5.9707 12.7207 7.37695L10.998 9.09375C11.0566 8.71289 11.0215 8.2793 10.8574 7.9043L12.0059 6.75586C13.0195 5.74219 13.0312 4.29492 12.0059 3.26953C10.9805 2.24414 9.53906 2.25 8.51367 3.26953L6.60352 5.17969C5.58984 6.19336 5.58398 7.64648 6.60938 8.67188C6.99023 9.05273 7.49414 9.28711 8.26758 9.3457L7.48828 10.1367ZM7.63477 5.30859C8.38477 5.4375 8.85352 5.70117 9.22266 6.07031C10.6465 7.48828 10.6348 9.48047 9.22852 10.8867L7.22461 12.8965C5.82422 14.2969 3.83203 14.3086 2.4082 12.8848C0.990234 11.4668 1.00195 9.47461 2.40234 8.06836L4.125 6.35156C4.06055 6.73242 4.10156 7.17188 4.26562 7.54102L3.11719 8.68945C2.09766 9.70898 2.0918 11.1504 3.11719 12.1816C4.14258 13.2012 5.58398 13.1953 6.60352 12.1758L8.51953 10.2656C9.5332 9.25195 9.53906 7.79883 8.51367 6.77344C8.13281 6.39258 7.62891 6.16406 6.85547 6.09961L7.63477 5.30859Z" fill="#3076FF"/>
</svg>
