<svg width="28" height="14" viewBox="0 0 28 14" fill="none" xmlns="http://www.w3.org/2000/svg">
<path opacity="0.7" d="M4.25586 13.3965C3.88672 13.3965 3.66992 13.1387 3.66992 12.7344V11.0527H3.23047C1.56641 11.0527 0.494141 10.0156 0.494141 8.25781V3.66992C0.494141 1.91211 1.52539 0.863281 3.29492 0.863281H10.9766C12.752 0.863281 13.7832 1.91211 13.7832 3.66992V8.25781C13.7832 10.0098 12.752 11.0527 10.9766 11.0527H7.17969L5.01172 13.0039C4.70703 13.2793 4.51367 13.3965 4.25586 13.3965ZM24.4829 11V9.37695H20.3462V8.14062C21.4419 6.23633 22.643 4.29102 23.7915 2.54492H25.9302V8.12891H27.0669V9.37695H25.9302V11H24.4829ZM21.7524 8.16406H24.5063V3.75195H24.4184C23.5513 5.07617 22.5727 6.64062 21.7524 8.07617V8.16406Z" fill="#191919"/>
</svg>
